<svg xmlns="http://www.w3.org/2000/svg" width="1280" height="640" viewBox="0 0 1280 640" role="img" aria-labelledby="title desc">
  <title id="title">Iris Agent - open-source coding agent</title>
  <desc id="desc">A monochrome AIRIS coding agent social preview by 4onStudios.</desc>
  <rect width="1280" height="640" fill="#ffffff"/>
  <rect x="34" y="34" width="1212" height="572" rx="34" fill="#0a0a0a"/>
  <path d="M34 180h1212" stroke="#888888" stroke-width="3"/>

  <g fill="#ffffff">
    <circle cx="92" cy="106" r="10"/>
    <circle cx="126" cy="106" r="10"/>
    <circle cx="160" cy="106" r="10"/>
    <circle cx="194" cy="106" r="10"/>
  </g>
  <text x="1120" y="116" fill="#888888" font-family="Arial, Helvetica, sans-serif"
        font-size="24" letter-spacing="5" text-anchor="end">4ONSTUDIOS</text>

  <g transform="translate(108 250)" fill="none" stroke="#ffffff" stroke-width="24"
     stroke-linecap="round" stroke-linejoin="round">
    <path d="m0 0 70 64-70 64"/>
    <path d="M102 128h112"/>
  </g>

  <circle cx="420" cy="314" r="82" fill="#ffffff"/>
  <path d="m420 250 17 47 47 17-47 17-17 47-17-47-47-17 47-17 17-47Z" fill="#0a0a0a"/>
  <path d="M420 220v-24M420 432v-24M326 314h-24M538 314h-24"
        stroke="#ffffff" stroke-width="10" stroke-linecap="round"/>

  <text x="620" y="314" fill="#ffffff" font-family="Arial, Helvetica, sans-serif"
        font-size="76" font-weight="700" letter-spacing="2">IRIS AGENT</text>
  <text x="624" y="374" fill="#bdbdbd" font-family="Arial, Helvetica, sans-serif"
        font-size="28" letter-spacing="1">OPEN-SOURCE CODING AGENT</text>
  <text x="624" y="430" fill="#888888" font-family="Arial, Helvetica, sans-serif"
        font-size="24">CLI  ·  HTTP API  ·  ACP  ·  LSP  ·  MCP</text>
</svg>
